<?xml version="1.0" encoding="UTF-8" standalone="no"?><!DOCTYPE svg PUBLIC "-//W3C//DTD SVG 1.1//EN" "http://www.w3.org/Graphics/SVG/1.1/DTD/svg11.dtd"><svg width="162px" height="36px" viewBox="0 0 1200 268" version="1.1" xmlns="http://www.w3.org/2000/svg" xmlns:xlink="http://www.w3.org/1999/xlink" xml:space="preserve" xmlns:serif="http://www.serif.com/" style="fill-rule:evenodd;clip-rule:evenodd;stroke-linejoin:round;stroke-miterlimit:1.41421;"><g id="Layer-1" serif:id="Layer 1"><path d="M16.391,251.319l1167.22,0l0,-235.252l-1167.22,0l0,235.252Zm1183.61,16.067l-1200,0l0,-267.386l1200,0l0,267.386Z" style="fill:#070002;fill-rule:nonzero;"/><path d="M98.249,100.382l-23.587,53l47.173,0l-23.586,-53Zm33.202,74.875l-66.405,0l-10.886,23.475l-25.946,0l56.972,-124.492l26.125,0l56.972,124.492l-26.127,0l-10.705,-23.475Z" style="fill:#070002;fill-rule:nonzero;"/><path d="M194.593,111.053l0,45.885c0,13.338 7.437,23.476 21.59,23.476c13.608,0 22.862,-11.204 22.862,-24.543l0,-44.818l21.953,0l0,87.857l-19.776,0l-1.453,-11.915c-9.252,8.892 -17.78,13.161 -30.297,13.161c-21.412,0 -37.015,-15.829 -37.015,-43.041l0,-46.062l22.136,0Z" style="fill:#070002;fill-rule:nonzero;"/><path d="M311.801,86.333l0,24.898l24.673,0l0,18.675l-24.856,0l0,37.882c0,8.357 4.718,12.447 11.612,12.447c3.449,0 7.438,-1.065 10.705,-2.666l6.17,18.496c-6.351,2.49 -11.612,3.557 -18.325,3.735c-19.414,0.711 -32.114,-10.139 -32.114,-32.012l0,-37.882l-16.694,0l0,-18.675l16.694,0l0,-22.585l22.135,-2.313Z" style="fill:#070002;fill-rule:nonzero;"/><path d="M370.945,154.982c0,13.339 8.166,25.788 24.313,25.788c16.148,0 24.312,-12.449 24.312,-25.788c0,-13.161 -9.435,-25.965 -24.312,-25.965c-15.968,0 -24.313,12.804 -24.313,25.965m70.942,0c0,25.254 -17.599,45.707 -46.629,45.707c-29.03,0 -46.448,-20.453 -46.448,-45.707c0,-25.076 17.782,-45.707 46.267,-45.707c28.484,0 46.81,20.631 46.81,45.707" style="fill:#070002;fill-rule:nonzero;"/><path d="M537.139,104.296c-4.353,-7.114 -16.327,-13.873 -30.118,-13.873c-17.78,0 -26.306,7.292 -26.306,16.541c0,10.848 13.062,13.871 28.301,15.649c26.492,3.201 51.166,9.961 51.166,39.661c0,27.744 -25.039,39.661 -53.342,39.661c-25.946,0 -45.903,-7.827 -55.338,-30.592l19.959,-10.136c5.622,13.694 20.321,19.74 35.741,19.74c15.06,0 29.213,-5.157 29.213,-18.673c0,-11.739 -12.519,-16.541 -29.394,-18.32c-25.946,-3.023 -49.894,-9.781 -49.894,-37.702c0,-25.611 25.762,-36.104 49.17,-36.281c19.775,0 40.277,5.514 49.894,24.721l-19.052,9.604Z" style="fill:#070002;fill-rule:nonzero;"/><path d="M577.055,198.733l22.135,0l0,-88.034l-22.135,0l0,88.034Zm24.131,-112.4c0,16.894 -26.127,16.894 -26.127,0c0,-16.896 26.127,-16.896 26.127,0" style="fill:#070002;fill-rule:nonzero;"/><path d="M688.455,111.053l0,10.316l-41.185,56.022l41.549,0l0,21.341l-75.297,0l0,-9.069l42.819,-58.868l-39.554,0l0,-19.742l71.668,0Z" style="fill:#070002;fill-rule:nonzero;"/><path d="M769.554,144.667c-1.451,-11.383 -10.522,-17.074 -23.224,-17.074c-11.973,0 -21.77,5.691 -25.037,17.074l48.261,0Zm-48.623,17.963c1.45,10.848 11.067,18.673 26.67,18.673c8.164,0 18.869,-3.023 23.95,-8.18l14.151,13.693c-9.435,9.604 -24.857,14.228 -38.465,14.228c-30.843,0 -49.168,-18.673 -49.168,-46.774c0,-26.677 18.506,-45.884 47.536,-45.884c29.938,0 48.625,18.14 45.177,54.244l-69.851,0Z" style="fill:#070002;fill-rule:nonzero;"/><path d="M1200,255.664l-392.407,0l0,-255.664l392.407,0l0,255.664Zm-188.497,-93.034c3.446,-36.104 -15.24,-54.244 -45.177,-54.244c-29.03,0 -47.536,19.207 -47.536,45.884c0,28.101 18.325,46.774 49.168,46.774c13.61,0 29.03,-4.624 38.465,-14.228l-14.151,-13.693c-5.081,5.157 -15.786,8.18 -23.95,8.18c-15.603,0 -25.219,-7.825 -26.67,-18.673l69.851,0Zm142.972,-51.399l0,-24.898l-22.136,2.313l0,22.585l-16.693,0l0,18.675l16.693,0l0,37.882c0,21.873 12.701,32.723 32.114,32.012c6.714,-0.178 11.975,-1.245 18.326,-3.735l-6.17,-18.496c-3.267,1.601 -7.257,2.666 -10.705,2.666c-6.894,0 -11.612,-4.09 -11.612,-12.447l0,-37.882l24.856,0l0,-18.675l-24.673,0Zm-105.958,-0.178l-26.491,0l0,0.712l29.394,42.505l-31.208,43.93l0,0.532l26.489,0l19.414,-29.345l19.415,29.345l26.489,0l0,-0.532l-31.206,-43.93l29.392,-42.505l0,-0.712l-26.489,0l-17.601,29.703l-17.598,-29.703Zm-114.124,-36.813l-104.506,0l0,21.341l40.278,0l0,103.151l23.95,0l0,-103.151l40.278,0l0,-21.341Zm55.884,70.427c-1.453,-11.383 -10.524,-17.074 -23.224,-17.074c-11.975,0 -21.774,5.691 -25.039,17.074l48.263,0Z" style="fill:#070002;"/></g></svg>